# xmcd CD database file
#
# Track frame offsets:
#	151
#	23222
#	50993
#	76390
#	99752
#	121079
#	138359
#	159426
#	174504
#	188505
#	210810
#	232850
#	248376
#	269663
#	291710
#
# Disc length: 4333 seconds
#
# Revision: 1
# Processed by: cddbd v1.4PL0 Copyright (c) Steve Scherf et al.
# Submitted via: NeoAudio 9.9.9
#
DISCID=c110eb0f
DTITLE=Sonidos De México - Lo Mejor De Los Sonidos De México
DYEAR=1900
DGENRE=Salsa
TTITLE0=Se Acabo
TTITLE1=No Quedo Ni El Gato
TTITLE2=Mi Desengaño
TTITLE3=La Soledad
TTITLE4=Mi Cuerpo
TTITLE5=Donde Estaras
TTITLE6=Ya No Te Quiero
TTITLE7=Ayer Supiste
TTITLE8=Tienes Que Sufrir
TTITLE9=Si Te Marchas
TTITLE10=A Nuestro Modo
TTITLE11=Caballo Viejo Murio
TTITLE12=Problemas De Ciudad
TTITLE13=Tomalo Con Calama
TTITLE14=Viejo Lazaro
EXTD=
EXTT0=
EXTT1=
EXTT2=
EXTT3=
EXTT4=
EXTT5=
EXTT6=
EXTT7=
EXTT8=
EXTT9=
EXTT10=
EXTT11=
EXTT12=
EXTT13=
EXTT14=
PLAYORDER=
